# xmcd CD database file
#
# Track frame offsets:
#	150
#	17072
#	34215
#	43382
#	51717
#	69562
#	74500
#	87655
#	101185
#	121235
#	131312
#	137765
#	141112
#
# Disc length: 2105 seconds
#
# Revision: 1
# Processed by: cddbd v1.5.2PL0 Copyright (c) Steve Scherf et al.
# Submitted via: CDex 1.70beta2
#
DISCID=ce08370d
DTITLE=Ramblin' Jack Elliott - Bull Durham Sacks and Railroad Tracks
DYEAR=1970
DGENRE=Country
TTITLE0=Rapping and Rambling - Me and Bobby McGee
TTITLE1=Rapping and Rambling - Folsom Prison Blues
TTITLE2=Find a Reason to Believe
TTITLE3=I'll Be Your Baby Tonight
TTITLE4=Don't Let Your Deal Go Down - Rapping and Rambling - We Come Here Not Chicago Dutchland for the Alles Brink Hoof Geslaffen Mocker
TTITLE5=Rapping and Rambling - Don't Think Twice, It's All Right
TTITLE6=Lay, Lady, Lay
TTITLE7=Rapping and Rambling - Girl From the North Country
TTITLE8=Rapping and Rambling - The Tramp on the Street
TTITLE9=Rapping and Rambling - Michgan Water Blues
TTITLE10=Don't You Leave Me Here
TTITLE11=Rapping and Rambling - Blue Mountain
TTITLE12=With God On Our Side
EXTD=YEAR: 1970
EXTT0=
EXTT1=
EXTT2=
EXTT3=
EXTT4=
EXTT5=
EXTT6=
EXTT7=
EXTT8=
EXTT9=
EXTT10=
EXTT11=
EXTT12=
PLAYORDER=
